<?xml version="1.0" encoding="UTF-8"?>
<svg id="SVGRoot" width="83.126mm" height="50.337mm" version="1.1" viewBox="0 0 83.126 50.337" xml:space="preserve" xmlns="http://www.w3.org/2000/svg" xmlns:cc="http://creativecommons.org/ns#" xmlns:dc="http://purl.org/dc/elements/1.1/" xmlns:rdf="http://www.w3.org/1999/02/22-rdf-syntax-ns#"><metadata><rdf:RDF><cc:Work rdf:about=""><dc:format>image/svg+xml</dc:format><dc:type rdf:resource="http://purl.org/dc/dcmitype/StillImage"/></cc:Work></rdf:RDF></metadata><path d="m39.298 50.127c-1.1874-0.33426-1.9296-0.69674-2.9851-1.4579-0.54736-0.39472-8.5713-8.3086-17.831-17.586l-16.836-16.869-0.67256-1.3809c-1.2979-2.6649-1.2985-5.2959-0.001732-7.9356 1.5249-3.1041 4.4506-4.902 7.9691-4.897 1.5868 0.0023 2.734 0.2752 4.1993 0.99914 0.95509 0.47184 2.3797 1.8414 14.745 14.176l13.688 13.653 13.525-13.494c8.2212-8.2024 13.853-13.698 14.362-14.015 1.3803-0.86051 2.5527-1.2054 4.3619-1.283 2.7745-0.11905 4.8119 0.64942 6.6834 2.5209 2.7465 2.7465 3.39 6.7162 1.6656 10.276l-0.66892 1.3809-17.324 17.314c-15.783 15.773-17.419 17.36-18.382 17.835-0.58148 0.28627-1.4588 0.62734-1.9496 0.75794-1.0781 0.2869-3.5391 0.29039-4.5477 0.0064z" stroke-width=".16246"/></svg>
