<?xml version="1.0" encoding="UTF-8" standalone="no"?>
<svg
   id="SVGRoot"
   width="83.125572mm"
   height="50.337456mm"
   version="1.1"
   viewBox="0 0 83.125574 50.337455"
   sodipodi:docname="dropDown-Down.svg"
   xml:space="preserve"
   inkscape:version="1.2.1 (9c6d41e410, 2022-07-14)"
   xmlns:inkscape="http://www.inkscape.org/namespaces/inkscape"
   xmlns:sodipodi="http://sodipodi.sourceforge.net/DTD/sodipodi-0.dtd"
   xmlns="http://www.w3.org/2000/svg"
   xmlns:svg="http://www.w3.org/2000/svg"
   xmlns:rdf="http://www.w3.org/1999/02/22-rdf-syntax-ns#"
   xmlns:cc="http://creativecommons.org/ns#"
   xmlns:dc="http://purl.org/dc/elements/1.1/"><defs
     id="defs15" /><sodipodi:namedview
     id="namedview13"
     pagecolor="#ffffff"
     bordercolor="#666666"
     borderopacity="1.0"
     inkscape:showpageshadow="2"
     inkscape:pageopacity="0.0"
     inkscape:pagecheckerboard="0"
     inkscape:deskcolor="#d1d1d1"
     inkscape:document-units="mm"
     showgrid="false"
     showguides="false"
     inkscape:zoom="2.6979548"
     inkscape:cx="163.27182"
     inkscape:cy="131.9518"
     inkscape:window-width="1920"
     inkscape:window-height="1017"
     inkscape:window-x="-8"
     inkscape:window-y="-8"
     inkscape:window-maximized="1"
     inkscape:current-layer="SVGRoot" /><metadata
     id="metadata10"><rdf:RDF><cc:Work
         rdf:about=""><dc:format>image/svg+xml</dc:format><dc:type
           rdf:resource="http://purl.org/dc/dcmitype/StillImage" /></cc:Work></rdf:RDF></metadata><path
     style="fill:#000000;stroke-width:0.162463"
     d="m 39.298291,0.2108462 c -1.18744,0.334262 -1.929635,0.696735 -2.985128,1.45788 -0.547363,0.394717 -8.571302,8.308608 -17.83098,17.5864228 L 1.6464079,36.123903 0.97384549,37.504835 c -1.29788461,2.664868 -1.29845885,5.295914 -0.001732,7.935647 1.52485131,3.104123 4.45058691,4.901961 7.96913761,4.896963 1.5868069,-0.0023 2.7339709,-0.275195 4.1993459,-0.999138 0.955089,-0.471844 2.379717,-1.841441 14.745133,-14.175548 L 41.573628,21.509518 55.098202,35.003187 c 8.221168,8.202381 13.852764,13.698274 14.361516,14.015448 1.380268,0.860512 2.552661,1.205356 4.361858,1.282986 2.774542,0.119051 4.811913,-0.649417 6.683372,-2.520876 2.746533,-2.746533 3.389967,-6.716152 1.665619,-10.27591 L 81.501644,36.123903 64.177221,18.809815 C 48.39454,3.0365482 46.758713,1.4494082 45.795564,0.9752402 c -0.58148,-0.286269 -1.458777,-0.627341 -1.94955,-0.75794 -1.078136,-0.286899 -3.53906,-0.290392 -4.547723,-0.0064 z"
     id="path410" /></svg>
