<svg version="1.1" viewBox="0.0 0.0 480.0 480.0" fill="none" stroke="none" stroke-linecap="square" stroke-miterlimit="10" xmlns:xlink="http://www.w3.org/1999/xlink" xmlns="http://www.w3.org/2000/svg"><clipPath id="p.0"><path d="m0 0l480.0 0l0 480.0l-480.0 0l0 -480.0z" clip-rule="nonzero"/></clipPath><g clip-path="url(#p.0)"><path fill="#000000" fill-opacity="0.0" d="m0 0l480.0 0l0 480.0l-480.0 0z" fill-rule="evenodd"/><path fill="#ffffff" d="m425.84903 162.87447l0 0l0 0c-62.807465 -97.35297 -192.46918 -125.08894 -289.60754 -61.950043l-67.87536 44.11827l-29.206139 -45.270164l-8.191444 108.88392l102.336006 37.04222l-29.206139 -45.270157l67.87536 -44.11827l0 0c66.617035 -43.30037 155.53845 -24.27916 198.61151 42.48506l0 0z" fill-rule="evenodd"/><path stroke="#000000" stroke-width="8.0" stroke-linejoin="round" stroke-linecap="butt" d="m425.84903 162.87447l0 0l0 0c-62.807465 -97.35297 -192.46918 -125.08894 -289.60754 -61.950043l-67.87536 44.11827l-29.206139 -45.270164l-8.191444 108.88392l102.336006 37.04222l-29.206139 -45.270157l67.87536 -44.11827l0 0c66.617035 -43.30037 155.53845 -24.27916 198.61151 42.48506l0 0z" fill-rule="evenodd"/><path fill="#ffffff" d="m54.15145 317.12643l0 0l0 0c62.807472 97.35297 192.46918 125.08896 289.6075 61.950043l67.87537 -44.118256l29.206146 45.270172l8.191437 -108.88391l-102.336 -37.04225l29.206146 45.270157l-67.87537 44.118286l0 0c-66.617035 43.300354 -155.53845 24.279144 -198.61153 -42.485077l0 0z" fill-rule="evenodd"/><path stroke="#000000" stroke-width="8.0" stroke-linejoin="round" stroke-linecap="butt" d="m54.15145 317.12643l0 0l0 0c62.807472 97.35297 192.46918 125.08896 289.6075 61.950043l67.87537 -44.118256l29.206146 45.270172l8.191437 -108.88391l-102.336 -37.04225l29.206146 45.270157l-67.87537 44.118286l0 0c-66.617035 43.300354 -155.53845 24.279144 -198.61153 -42.485077l0 0z" fill-rule="evenodd"/></g></svg>