<?xml version="1.0" encoding="UTF-8"?>
<!DOCTYPE svg PUBLIC "-//W3C//DTD SVG 1.1//EN" "http://www.w3.org/Graphics/SVG/1.1/DTD/svg11.dtd">
<svg xmlns="http://www.w3.org/2000/svg" version="1.1" width="1787px" height="340px" style="shape-rendering:geometricPrecision; text-rendering:geometricPrecision; image-rendering:optimizeQuality; fill-rule:evenodd; clip-rule:evenodd" xmlns:xlink="http://www.w3.org/1999/xlink">
<g><path style="opacity:1" fill="#d8d8d8" d="M 336.5,316.5 C 329.833,316.5 323.167,316.5 316.5,316.5C 316.5,217.833 316.5,119.167 316.5,20.5C 217.833,20.5 119.167,20.5 20.5,20.5C 20.5,119.167 20.5,217.833 20.5,316.5C 19.5006,218.001 19.1672,119.335 19.5,20.5C 13.1667,20.5 6.83333,20.5 0.5,20.5C 0.5,13.8333 0.5,7.16667 0.5,0.5C 112.5,0.5 224.5,0.5 336.5,0.5C 336.5,105.833 336.5,211.167 336.5,316.5 Z"/></g>
<g><path style="opacity:1" fill="#dedede" d="M -0.5,-0.5 C 112.5,-0.5 225.5,-0.5 338.5,-0.5C 338.5,105.167 338.5,210.833 338.5,316.5C 337.833,316.5 337.167,316.5 336.5,316.5C 336.5,211.167 336.5,105.833 336.5,0.5C 224.5,0.5 112.5,0.5 0.5,0.5C 0.5,7.16667 0.5,13.8333 0.5,20.5C 0.166667,20.5 -0.166667,20.5 -0.5,20.5C -0.5,13.5 -0.5,6.5 -0.5,-0.5 Z"/></g>
<g><path style="opacity:1" fill="#c7c7c7" d="M -0.5,20.5 C -0.166667,20.5 0.166667,20.5 0.5,20.5C 6.83333,20.5 13.1667,20.5 19.5,20.5C 19.1672,119.335 19.5006,218.001 20.5,316.5C 119.167,317.833 217.833,317.833 316.5,316.5C 323.167,316.5 329.833,316.5 336.5,316.5C 337.167,316.5 337.833,316.5 338.5,316.5C 338.5,323.833 338.5,331.167 338.5,338.5C 225.5,338.5 112.5,338.5 -0.5,338.5C -0.5,232.5 -0.5,126.5 -0.5,20.5 Z"/></g>
<g><path style="opacity:1" fill="#eaeaea" d="M 316.5,316.5 C 217.833,317.833 119.167,317.833 20.5,316.5C 20.5,217.833 20.5,119.167 20.5,20.5C 119.167,20.5 217.833,20.5 316.5,20.5C 316.5,119.167 316.5,217.833 316.5,316.5 Z"/></g>
<g><path style="opacity:1" fill="#000000" d="M 232.5,41.5 C 253.5,41.5 274.5,41.5 295.5,41.5C 295.5,126.167 295.5,210.833 295.5,295.5C 274.5,295.5 253.5,295.5 232.5,295.5C 232.5,260.167 232.5,224.833 232.5,189.5C 189.833,189.5 147.167,189.5 104.5,189.5C 104.5,224.833 104.5,260.167 104.5,295.5C 83.8333,295.5 63.1667,295.5 42.5,295.5C 42.5,211.167 42.5,126.833 42.5,42.5C 63.1667,42.5 83.8333,42.5 104.5,42.5C 104.5,70.5 104.5,98.5 104.5,126.5C 147.167,126.5 189.833,126.5 232.5,126.5C 232.5,98.1667 232.5,69.8333 232.5,41.5 Z"/></g>
<g><path style="opacity:1" fill="#202020" d="M 104.5,41.5 C 104.5,41.8333 104.5,42.1667 104.5,42.5C 83.8333,42.5 63.1667,42.5 42.5,42.5C 42.5,126.833 42.5,211.167 42.5,295.5C 41.5007,211.002 41.1673,126.335 41.5,41.5C 62.5,41.5 83.5,41.5 104.5,41.5 Z"/></g>
<g><path style="opacity:1" fill="#d8d8d8" d="M 627.5,322.5 C 622.167,322.5 616.833,322.5 611.5,322.5C 535.002,323.499 458.335,323.833 381.5,323.5C 381.5,246.833 381.5,170.167 381.5,93.5C 376.167,93.5 370.833,93.5 365.5,93.5C 365.5,87.8333 365.5,82.1667 365.5,76.5C 452.833,76.5 540.167,76.5 627.5,76.5C 627.5,158.5 627.5,240.5 627.5,322.5 Z"/></g>
<g><path style="opacity:0.999" fill="#d8d8d8" d="M 919.5,322.5 C 914.167,322.5 908.833,322.5 903.5,322.5C 903.5,246.167 903.5,169.833 903.5,93.5C 826.833,93.5 750.167,93.5 673.5,93.5C 668.5,93.5 663.5,93.5 658.5,93.5C 658.5,175.5 658.5,257.5 658.5,339.5C 658.167,339.5 657.833,339.5 657.5,339.5C 657.5,251.833 657.5,164.167 657.5,76.5C 744.833,76.5 832.167,76.5 919.5,76.5C 919.5,158.5 919.5,240.5 919.5,322.5 Z"/></g>
<g><path style="opacity:1" fill="#d8d8d8" d="M 1209.5,322.5 C 1203.83,322.5 1198.17,322.5 1192.5,322.5C 1192.5,246.167 1192.5,169.833 1192.5,93.5C 1116.17,93.5 1039.83,93.5 963.5,93.5C 963.5,169.833 963.5,246.167 963.5,322.5C 962.501,246.335 962.167,170.002 962.5,93.5C 957.167,93.5 951.833,93.5 946.5,93.5C 946.193,87.9066 946.527,82.4066 947.5,77C 1034.5,76.3333 1121.5,76.3333 1208.5,77C 1209.5,158.763 1209.83,240.596 1209.5,322.5 Z"/></g>
<g><path style="opacity:1" fill="#d9d9d9" d="M 1498.5,322.5 C 1493.17,322.5 1487.83,322.5 1482.5,322.5C 1406,323.499 1329.34,323.833 1252.5,323.5C 1252.5,246.833 1252.5,170.167 1252.5,93.5C 1247.17,93.5 1241.83,93.5 1236.5,93.5C 1236.5,87.8333 1236.5,82.1667 1236.5,76.5C 1323.83,76.5 1411.17,76.5 1498.5,76.5C 1498.5,158.5 1498.5,240.5 1498.5,322.5 Z"/></g>
<g><path style="opacity:1" fill="#d8d8d8" d="M 1786.5,76.5 C 1786.5,158.5 1786.5,240.5 1786.5,322.5C 1781.17,322.5 1775.83,322.5 1770.5,322.5C 1770.5,246.167 1770.5,169.833 1770.5,93.5C 1693.83,93.5 1617.17,93.5 1540.5,93.5C 1535.5,93.5 1530.5,93.5 1525.5,93.5C 1525.5,175.5 1525.5,257.5 1525.5,339.5C 1525.17,339.5 1524.83,339.5 1524.5,339.5C 1524.5,251.833 1524.5,164.167 1524.5,76.5C 1611.83,76.5 1699.17,76.5 1786.5,76.5 Z"/></g>
<g><path style="opacity:1" fill="#c7c7c7" d="M 365.5,93.5 C 370.833,93.5 376.167,93.5 381.5,93.5C 381.5,170.167 381.5,246.833 381.5,323.5C 458.335,323.833 535.002,323.499 611.5,322.5C 616.833,322.5 622.167,322.5 627.5,322.5C 627.5,328.167 627.5,333.833 627.5,339.5C 540.167,339.5 452.833,339.5 365.5,339.5C 365.5,257.5 365.5,175.5 365.5,93.5 Z"/></g>
<g><path style="opacity:1" fill="#eaeaea" d="M 611.5,322.5 C 535.167,322.5 458.833,322.5 382.5,322.5C 382.5,246.167 382.5,169.833 382.5,93.5C 458.833,93.5 535.167,93.5 611.5,93.5C 611.5,169.833 611.5,246.167 611.5,322.5 Z"/></g>
<g><path style="opacity:0.996" fill="#c7c7c7" d="M 673.5,93.5 C 673.5,169.833 673.5,246.167 673.5,322.5C 750.167,322.5 826.833,322.5 903.5,322.5C 908.833,322.5 914.167,322.5 919.5,322.5C 919.5,328.167 919.5,333.833 919.5,339.5C 832.5,339.5 745.5,339.5 658.5,339.5C 658.5,257.5 658.5,175.5 658.5,93.5C 663.5,93.5 668.5,93.5 673.5,93.5 Z"/></g>
<g><path style="opacity:1" fill="#eaeaea" d="M 673.5,93.5 C 750.167,93.5 826.833,93.5 903.5,93.5C 903.5,169.833 903.5,246.167 903.5,322.5C 826.833,322.5 750.167,322.5 673.5,322.5C 673.5,246.167 673.5,169.833 673.5,93.5 Z"/></g>
<g><path style="opacity:1" fill="#c7c7c7" d="M 946.5,93.5 C 951.833,93.5 957.167,93.5 962.5,93.5C 962.167,170.002 962.501,246.335 963.5,322.5C 1039.83,322.5 1116.17,322.5 1192.5,322.5C 1198.17,322.5 1203.83,322.5 1209.5,322.5C 1209.79,328.259 1209.45,333.925 1208.5,339.5C 1121.17,339.5 1033.83,339.5 946.5,339.5C 946.5,257.5 946.5,175.5 946.5,93.5 Z"/></g>
<g><path style="opacity:1" fill="#eaeaea" d="M 1192.5,322.5 C 1116.17,322.5 1039.83,322.5 963.5,322.5C 963.5,246.167 963.5,169.833 963.5,93.5C 1039.83,93.5 1116.17,93.5 1192.5,93.5C 1192.5,169.833 1192.5,246.167 1192.5,322.5 Z"/></g>
<g><path style="opacity:1" fill="#c7c7c7" d="M 1236.5,93.5 C 1241.83,93.5 1247.17,93.5 1252.5,93.5C 1252.5,170.167 1252.5,246.833 1252.5,323.5C 1329.34,323.833 1406,323.499 1482.5,322.5C 1487.83,322.5 1493.17,322.5 1498.5,322.5C 1498.5,328.167 1498.5,333.833 1498.5,339.5C 1411.17,339.5 1323.83,339.5 1236.5,339.5C 1236.5,257.5 1236.5,175.5 1236.5,93.5 Z"/></g>
<g><path style="opacity:1" fill="#ebebeb" d="M 1482.5,322.5 C 1406.17,322.5 1329.83,322.5 1253.5,322.5C 1253.5,246.167 1253.5,169.833 1253.5,93.5C 1329.83,93.5 1406.17,93.5 1482.5,93.5C 1482.5,169.833 1482.5,246.167 1482.5,322.5 Z"/></g>
<g><path style="opacity:1" fill="#c7c7c7" d="M 1540.5,93.5 C 1540.5,169.833 1540.5,246.167 1540.5,322.5C 1617.17,322.5 1693.83,322.5 1770.5,322.5C 1775.83,322.5 1781.17,322.5 1786.5,322.5C 1786.5,328.167 1786.5,333.833 1786.5,339.5C 1699.5,339.5 1612.5,339.5 1525.5,339.5C 1525.5,257.5 1525.5,175.5 1525.5,93.5C 1530.5,93.5 1535.5,93.5 1540.5,93.5 Z"/></g>
<g><path style="opacity:1" fill="#eaeaea" d="M 1540.5,93.5 C 1617.17,93.5 1693.83,93.5 1770.5,93.5C 1770.5,169.833 1770.5,246.167 1770.5,322.5C 1693.83,322.5 1617.17,322.5 1540.5,322.5C 1540.5,246.167 1540.5,169.833 1540.5,93.5 Z"/></g>
<g><path style="opacity:1" fill="#424242" d="M 886.5,110.5 C 821.167,110.5 755.833,110.5 690.5,110.5C 690.5,120.833 690.5,131.167 690.5,141.5C 745.003,141.168 799.336,141.501 853.5,142.5C 798.833,142.5 744.167,142.5 689.5,142.5C 689.5,131.5 689.5,120.5 689.5,109.5C 755.335,109.168 821.002,109.501 886.5,110.5 Z"/></g>
<g><path style="opacity:1" fill="#010101" d="M 578.5,109.5 C 578.5,115.167 578.5,120.833 578.5,126.5C 583.833,126.5 589.167,126.5 594.5,126.5C 594.5,186.167 594.5,245.833 594.5,305.5C 529.167,305.5 463.833,305.5 398.5,305.5C 398.5,262.167 398.5,218.833 398.5,175.5C 453.167,175.5 507.833,175.5 562.5,175.5C 562.5,164.5 562.5,153.5 562.5,142.5C 507.833,142.5 453.167,142.5 398.5,142.5C 398.5,131.5 398.5,120.5 398.5,109.5C 458.5,109.5 518.5,109.5 578.5,109.5 Z"/></g>
<g><path style="opacity:1" fill="#000000" d="M 886.5,110.5 C 886.5,131.833 886.5,153.167 886.5,174.5C 875.833,174.5 865.167,174.5 854.5,174.5C 854.828,163.654 854.494,152.987 853.5,142.5C 799.336,141.501 745.003,141.168 690.5,141.5C 690.5,131.167 690.5,120.833 690.5,110.5C 755.833,110.5 821.167,110.5 886.5,110.5 Z"/></g>
<g><path style="opacity:1" fill="#020202" d="M 1159.5,110.5 C 1159.5,115.833 1159.5,121.167 1159.5,126.5C 1164.83,126.5 1170.17,126.5 1175.5,126.5C 1175.5,186.167 1175.5,245.833 1175.5,305.5C 1110.5,305.5 1045.5,305.5 980.5,305.5C 980.5,262.5 980.5,219.5 980.5,176.5C 1035,176.832 1089.34,176.499 1143.5,175.5C 1143.5,164.5 1143.5,153.5 1143.5,142.5C 1089.34,141.501 1035,141.168 980.5,141.5C 980.5,131.167 980.5,120.833 980.5,110.5C 1040.17,110.5 1099.83,110.5 1159.5,110.5 Z"/></g>
<g><path style="opacity:1" fill="#020202" d="M 1432.5,158.5 C 1394.33,158.168 1356.33,158.501 1318.5,159.5C 1318.5,208.5 1318.5,257.5 1318.5,306.5C 1307.5,306.5 1296.5,306.5 1285.5,306.5C 1285.5,251.833 1285.5,197.167 1285.5,142.5C 1280.17,142.5 1274.83,142.5 1269.5,142.5C 1269.5,131.833 1269.5,121.167 1269.5,110.5C 1280.17,110.5 1290.83,110.5 1301.5,110.5C 1301.5,115.833 1301.5,121.167 1301.5,126.5C 1345.17,126.5 1388.83,126.5 1432.5,126.5C 1432.5,137.167 1432.5,147.833 1432.5,158.5 Z"/></g>
<g><path style="opacity:1" fill="#010101" d="M 1736.5,305.5 C 1682.5,305.5 1628.5,305.5 1574.5,305.5C 1574.5,262.5 1574.5,219.5 1574.5,176.5C 1618,176.832 1661.34,176.499 1704.5,175.5C 1705.5,154.006 1705.83,132.34 1705.5,110.5C 1715.83,110.5 1726.17,110.5 1736.5,110.5C 1736.5,175.5 1736.5,240.5 1736.5,305.5 Z"/></g>
<g><path style="opacity:1" fill="#474747" d="M 1704.5,109.5 C 1715.5,109.5 1726.5,109.5 1737.5,109.5C 1737.83,175.335 1737.5,241.002 1736.5,306.5C 1736.5,306.167 1736.5,305.833 1736.5,305.5C 1736.5,240.5 1736.5,175.5 1736.5,110.5C 1726.17,110.5 1715.83,110.5 1705.5,110.5C 1705.83,132.34 1705.5,154.006 1704.5,175.5C 1704.5,153.5 1704.5,131.5 1704.5,109.5 Z"/></g>
<g><path style="opacity:1" fill="#ababab" d="M 104.5,41.5 C 105.498,69.3284 105.831,97.3284 105.5,125.5C 147.5,125.5 189.5,125.5 231.5,125.5C 231.169,97.3284 231.502,69.3284 232.5,41.5C 232.5,69.8333 232.5,98.1667 232.5,126.5C 189.833,126.5 147.167,126.5 104.5,126.5C 104.5,98.5 104.5,70.5 104.5,42.5C 104.5,42.1667 104.5,41.8333 104.5,41.5 Z"/></g>
<g><path style="opacity:1" fill="#989898" d="M 578.5,109.5 C 579.488,114.64 579.821,119.974 579.5,125.5C 584.695,125.179 589.695,125.513 594.5,126.5C 589.167,126.5 583.833,126.5 578.5,126.5C 578.5,120.833 578.5,115.167 578.5,109.5 Z"/></g>
<g><path style="opacity:1" fill="#8d8d8d" d="M 1159.5,109.5 C 1160.49,114.64 1160.82,119.974 1160.5,125.5C 1166.03,125.179 1171.36,125.512 1176.5,126.5C 1176.17,126.5 1175.83,126.5 1175.5,126.5C 1170.17,126.5 1164.83,126.5 1159.5,126.5C 1159.5,121.167 1159.5,115.833 1159.5,110.5C 1159.5,110.167 1159.5,109.833 1159.5,109.5 Z"/></g>
<g><path style="opacity:1" fill="#808080" d="M 1433.5,158.5 C 1433.17,158.5 1432.83,158.5 1432.5,158.5C 1432.5,147.833 1432.5,137.167 1432.5,126.5C 1388.83,126.5 1345.17,126.5 1301.5,126.5C 1301.5,121.167 1301.5,115.833 1301.5,110.5C 1290.83,110.5 1280.17,110.5 1269.5,110.5C 1269.5,121.167 1269.5,131.833 1269.5,142.5C 1268.51,131.679 1268.17,120.679 1268.5,109.5C 1279.83,109.5 1291.17,109.5 1302.5,109.5C 1302.5,114.833 1302.5,120.167 1302.5,125.5C 1346.17,125.5 1389.83,125.5 1433.5,125.5C 1433.5,136.5 1433.5,147.5 1433.5,158.5 Z"/></g>
<g><path style="opacity:1" fill="#353535" d="M 1159.5,109.5 C 1159.5,109.833 1159.5,110.167 1159.5,110.5C 1099.83,110.5 1040.17,110.5 980.5,110.5C 980.5,120.833 980.5,131.167 980.5,141.5C 1035,141.168 1089.34,141.501 1143.5,142.5C 1088.83,142.5 1034.17,142.5 979.5,142.5C 979.5,131.5 979.5,120.5 979.5,109.5C 1039.5,109.5 1099.5,109.5 1159.5,109.5 Z"/></g>
<g><path style="opacity:1" fill="#b8b8b8" d="M 979.5,142.5 C 1034.17,142.5 1088.83,142.5 1143.5,142.5C 1143.5,153.5 1143.5,164.5 1143.5,175.5C 1088.83,175.5 1034.17,175.5 979.5,175.5C 1033.66,174.501 1088,174.168 1142.5,174.5C 1142.5,164.167 1142.5,153.833 1142.5,143.5C 1088,143.832 1033.66,143.499 979.5,142.5 Z"/></g>
<g><path style="opacity:1" fill="#c7c7c7" d="M 1269.5,142.5 C 1274.83,142.5 1280.17,142.5 1285.5,142.5C 1285.5,197.167 1285.5,251.833 1285.5,306.5C 1284.5,252.336 1284.17,198.003 1284.5,143.5C 1279.31,143.821 1274.31,143.487 1269.5,142.5 Z"/></g>
<g><path style="opacity:1" fill="#8e8e8e" d="M 1318.5,159.5 C 1356.33,158.501 1394.33,158.168 1432.5,158.5C 1432.83,158.5 1433.17,158.5 1433.5,158.5C 1433.5,158.833 1433.5,159.167 1433.5,159.5C 1433.5,175.5 1433.5,191.5 1433.5,207.5C 1433.5,207.833 1433.5,208.167 1433.5,208.5C 1432.5,192.342 1432.17,176.009 1432.5,159.5C 1394.5,159.5 1356.5,159.5 1318.5,159.5 Z"/></g>
<g><path style="opacity:1" fill="#000000" d="M 1433.5,159.5 C 1444.17,159.5 1454.83,159.5 1465.5,159.5C 1465.5,175.5 1465.5,191.5 1465.5,207.5C 1454.83,207.5 1444.17,207.5 1433.5,207.5C 1433.5,191.5 1433.5,175.5 1433.5,159.5 Z"/></g>
<g><path style="opacity:1" fill="#737373" d="M 1433.5,159.5 C 1433.5,159.167 1433.5,158.833 1433.5,158.5C 1444.5,158.5 1455.5,158.5 1466.5,158.5C 1466.5,175.167 1466.5,191.833 1466.5,208.5C 1455.5,208.5 1444.5,208.5 1433.5,208.5C 1433.5,208.167 1433.5,207.833 1433.5,207.5C 1444.17,207.5 1454.83,207.5 1465.5,207.5C 1465.5,191.5 1465.5,175.5 1465.5,159.5C 1454.83,159.5 1444.17,159.5 1433.5,159.5 Z"/></g>
<g><path style="opacity:1" fill="#afafaf" d="M 398.5,142.5 C 453.167,142.5 507.833,142.5 562.5,142.5C 562.5,153.5 562.5,164.5 562.5,175.5C 507.833,175.5 453.167,175.5 398.5,175.5C 452.664,174.501 506.997,174.168 561.5,174.5C 561.5,164.167 561.5,153.833 561.5,143.5C 506.997,143.832 452.664,143.499 398.5,142.5 Z"/></g>
<g><path style="opacity:1" fill="#afafaf" d="M 1704.5,109.5 C 1704.5,131.5 1704.5,153.5 1704.5,175.5C 1660.83,175.5 1617.17,175.5 1573.5,175.5C 1616.66,174.501 1660,174.168 1703.5,174.5C 1703.17,152.66 1703.5,130.994 1704.5,109.5 Z"/></g>
<g><path style="opacity:1" fill="#010101" d="M 821.5,175.5 C 832.167,175.5 842.833,175.5 853.5,175.5C 853.5,186.167 853.5,196.833 853.5,207.5C 842.654,207.172 831.987,207.506 821.5,208.5C 821.5,213.833 821.5,219.167 821.5,224.5C 799.5,224.5 777.5,224.5 755.5,224.5C 755.5,229.833 755.5,235.167 755.5,240.5C 744.833,240.5 734.167,240.5 723.5,240.5C 723.5,229.833 723.5,219.167 723.5,208.5C 734.167,208.5 744.833,208.5 755.5,208.5C 756.488,203.36 756.821,198.026 756.5,192.5C 778.34,192.831 800.006,192.497 821.5,191.5C 821.5,186.167 821.5,180.833 821.5,175.5 Z"/></g>
<g><path style="opacity:1" fill="#737373" d="M 853.5,142.5 C 854.494,152.987 854.828,163.654 854.5,174.5C 865.167,174.5 875.833,174.5 886.5,174.5C 876.013,175.494 865.346,175.828 854.5,175.5C 854.5,186.5 854.5,197.5 854.5,208.5C 843.5,208.5 832.5,208.5 821.5,208.5C 831.987,207.506 842.654,207.172 853.5,207.5C 853.5,196.833 853.5,186.167 853.5,175.5C 842.833,175.5 832.167,175.5 821.5,175.5C 831.987,174.506 842.654,174.172 853.5,174.5C 853.5,163.833 853.5,153.167 853.5,142.5 Z"/></g>
<g><path style="opacity:1" fill="#232323" d="M 1175.5,126.5 C 1175.83,126.5 1176.17,126.5 1176.5,126.5C 1176.5,186.5 1176.5,246.5 1176.5,306.5C 1110.83,306.5 1045.17,306.5 979.5,306.5C 979.5,262.833 979.5,219.167 979.5,175.5C 1034.17,175.5 1088.83,175.5 1143.5,175.5C 1089.34,176.499 1035,176.832 980.5,176.5C 980.5,219.5 980.5,262.5 980.5,305.5C 1045.5,305.5 1110.5,305.5 1175.5,305.5C 1175.5,245.833 1175.5,186.167 1175.5,126.5 Z"/></g>
<g><path style="opacity:1" fill="#131313" d="M 1573.5,175.5 C 1617.17,175.5 1660.83,175.5 1704.5,175.5C 1661.34,176.499 1618,176.832 1574.5,176.5C 1574.5,219.5 1574.5,262.5 1574.5,305.5C 1628.5,305.5 1682.5,305.5 1736.5,305.5C 1736.5,305.833 1736.5,306.167 1736.5,306.5C 1682.17,306.5 1627.83,306.5 1573.5,306.5C 1573.5,262.833 1573.5,219.167 1573.5,175.5 Z"/></g>
<g><path style="opacity:1" fill="#9e9e9e" d="M 232.5,295.5 C 231.502,260.671 231.168,225.671 231.5,190.5C 189.5,190.5 147.5,190.5 105.5,190.5C 105.832,225.671 105.498,260.671 104.5,295.5C 104.5,260.167 104.5,224.833 104.5,189.5C 147.167,189.5 189.833,189.5 232.5,189.5C 232.5,224.833 232.5,260.167 232.5,295.5 Z"/></g>
<g><path style="opacity:1" fill="#303030" d="M 821.5,191.5 C 800.006,192.497 778.34,192.831 756.5,192.5C 756.821,198.026 756.488,203.36 755.5,208.5C 755.5,208.167 755.5,207.833 755.5,207.5C 755.5,202.167 755.5,196.833 755.5,191.5C 777.5,191.5 799.5,191.5 821.5,191.5 Z"/></g>
<g><path style="opacity:1" fill="#727272" d="M 431.5,208.5 C 474.997,207.501 518.663,207.168 562.5,207.5C 562.5,229.833 562.5,252.167 562.5,274.5C 518.663,274.832 474.997,274.499 431.5,273.5C 475.003,273.832 518.337,273.499 561.5,272.5C 561.5,251.167 561.5,229.833 561.5,208.5C 518.167,208.5 474.833,208.5 431.5,208.5 Z"/></g>
<g><path style="opacity:1" fill="#e9e9e9" d="M 1605.5,208.5 C 1638.5,208.5 1671.5,208.5 1704.5,208.5C 1704.5,230.167 1704.5,251.833 1704.5,273.5C 1671.5,273.5 1638.5,273.5 1605.5,273.5C 1605.5,251.833 1605.5,230.167 1605.5,208.5 Z"/></g>
<g><path style="opacity:1" fill="#ebebeb" d="M 431.5,208.5 C 474.833,208.5 518.167,208.5 561.5,208.5C 561.5,229.833 561.5,251.167 561.5,272.5C 518.167,272.5 474.833,272.5 431.5,272.5C 431.5,251.167 431.5,229.833 431.5,208.5 Z"/></g>
<g><path style="opacity:1" fill="#5d5d5d" d="M 755.5,207.5 C 755.5,207.833 755.5,208.167 755.5,208.5C 744.833,208.5 734.167,208.5 723.5,208.5C 723.5,219.167 723.5,229.833 723.5,240.5C 723.167,240.5 722.833,240.5 722.5,240.5C 722.5,229.5 722.5,218.5 722.5,207.5C 733.5,207.5 744.5,207.5 755.5,207.5 Z"/></g>
<g><path style="opacity:1" fill="#030303" d="M 722.5,241.5 C 722.5,252.167 722.5,262.833 722.5,273.5C 777.167,273.5 831.833,273.5 886.5,273.5C 886.5,284.5 886.5,295.5 886.5,306.5C 821.167,306.5 755.833,306.5 690.5,306.5C 690.5,284.833 690.5,263.167 690.5,241.5C 701.167,241.5 711.833,241.5 722.5,241.5 Z"/></g>
<g><path style="opacity:1" fill="#6a6a6a" d="M 722.5,240.5 C 722.833,240.5 723.167,240.5 723.5,240.5C 734.167,240.5 744.833,240.5 755.5,240.5C 744.679,241.495 733.679,241.828 722.5,241.5C 711.833,241.5 701.167,241.5 690.5,241.5C 690.5,263.167 690.5,284.833 690.5,306.5C 689.503,284.673 689.169,262.673 689.5,240.5C 700.5,240.5 711.5,240.5 722.5,240.5 Z"/></g>
<g><path style="opacity:1" fill="#c1c1c1" d="M 431.5,208.5 C 431.5,229.833 431.5,251.167 431.5,272.5C 474.833,272.5 518.167,272.5 561.5,272.5C 518.337,273.499 475.003,273.832 431.5,273.5C 430.167,251.833 430.167,230.167 431.5,208.5 Z"/></g>
<g><path style="opacity:1" fill="#d8d8d8" d="M 1013.5,208.5 C 1013.5,229.833 1013.5,251.167 1013.5,272.5C 1056.5,272.5 1099.5,272.5 1142.5,272.5C 1142.5,251.167 1142.5,229.833 1142.5,208.5C 1143.5,229.994 1143.83,251.66 1143.5,273.5C 1099.83,273.5 1056.17,273.5 1012.5,273.5C 1012.17,251.66 1012.5,229.994 1013.5,208.5 Z"/></g>
<g><path style="opacity:1" fill="#ebebeb" d="M 1013.5,208.5 C 1056.5,208.5 1099.5,208.5 1142.5,208.5C 1142.5,229.833 1142.5,251.167 1142.5,272.5C 1099.5,272.5 1056.5,272.5 1013.5,272.5C 1013.5,251.167 1013.5,229.833 1013.5,208.5 Z"/></g>
<g><path style="opacity:1" fill="#343434" d="M 594.5,126.5 C 595.499,186.331 595.832,246.331 595.5,306.5C 529.665,306.832 463.998,306.499 398.5,305.5C 463.833,305.5 529.167,305.5 594.5,305.5C 594.5,245.833 594.5,186.167 594.5,126.5 Z"/></g>
</svg>
