<?xml version="1.0" encoding="UTF-8"?>
<svg version="1.1" xmlns="http://www.w3.org/2000/svg" width="512" height="512">
<path d="M0 0 C1.35158203 1.02287109 1.35158203 1.02287109 2.73046875 2.06640625 C34.53616425 26.98775208 53.00924938 61.0554963 59.61328125 100.6796875 C60.32260861 107.02567646 60.24438723 113.43467866 60.25 119.8125 C60.25067474 120.50152405 60.25134949 121.1905481 60.25204468 121.90045166 C60.23456827 133.16081247 59.59466328 144.01068629 57 155 C56.83902832 155.69625488 56.67805664 156.39250977 56.51220703 157.10986328 C51.32550038 178.66882549 40.71733252 198.67284313 27 216 C27.67160156 216.23847656 28.34320313 216.47695313 29.03515625 216.72265625 C46.00557687 224.03402324 60.81266892 237.34279223 74 250 C74.56219238 250.53496094 75.12438477 251.06992187 75.70361328 251.62109375 C83.76685851 259.33047312 91.08124642 267.31493316 97.72509766 276.28076172 C98.9627098 277.94971322 100.22053819 279.60177553 101.48046875 281.25390625 C123.5413117 310.65960401 136.53289743 345.05380459 143 381 C143.35191406 382.81564453 143.35191406 382.81564453 143.7109375 384.66796875 C145.07989217 392.65353765 145.41819607 400.72980819 145.8125 408.8125 C145.87791992 409.97048096 145.94333984 411.12846191 146.01074219 412.3215332 C146.34436866 420.76386586 145.46979568 427.15002439 140.875 434.3125 C135.70297482 439.14721919 130.51790881 441.20539214 123.4375 441.5 C116.29873947 441.19091959 111.44937228 438.86787204 106.625 433.625 C102.77801895 429.09029049 101.78574748 423.8794827 101.5078125 418.0625 C101.4449707 416.93134766 101.38212891 415.80019531 101.31738281 414.63476562 C101.25389648 413.43529297 101.19041016 412.23582031 101.125 411 C99.06513521 378.49617441 90.70275785 346.66153396 73 319 C72.59555664 318.36787598 72.19111328 317.73575195 71.77441406 317.08447266 C65.27288212 307.053328 58.09356485 297.79345183 50 289 C49.49774902 288.4524707 48.99549805 287.90494141 48.47802734 287.34082031 C34.45296577 272.24517754 17.8914122 261.05419119 0 251 C-1.07894531 250.37351562 -2.15789062 249.74703125 -3.26953125 249.1015625 C-6.56229697 247.77315058 -7.68149245 247.79417593 -11 249 C-13.58207531 250.3280873 -16.09983049 251.69757779 -18.625 253.125 C-52.76481327 271.62724309 -94.66681189 276.05378005 -132 265 C-143.61530207 261.35976911 -154.50259843 256.59695062 -165.06640625 250.56640625 C-168.38323433 248.69424757 -168.38323433 248.69424757 -172 248 C-187.65438102 253.61562976 -202.6662799 265.12611323 -215 276 C-215.98355469 276.86238281 -216.96710938 277.72476562 -217.98046875 278.61328125 C-256.17927299 312.59135716 -276.9178253 360.1814947 -280 410.6875 C-280.05889404 411.89390137 -280.11778809 413.10030273 -280.1784668 414.34326172 C-280.7319638 424.14669071 -282.55480509 431.1884387 -290 438 C-295.75686506 441.49927092 -301.4412165 441.80255157 -308 441 C-314.33294084 439.42419782 -318.25627322 436.48048781 -321.84765625 431.05859375 C-332.66656189 411.73126063 -321.77612378 374.90604211 -316.43359375 354.98046875 C-306.57843648 320.18180946 -288.94817728 287.97560731 -264.30078125 261.48828125 C-262.30347565 259.32820712 -260.39456662 257.12452055 -258.5 254.875 C-246.53752665 241.1956902 -231.04426582 230.42462759 -215.8984375 220.59375 C-212.78323661 218.5596983 -209.85494789 216.39228835 -207 214 C-207.40089844 213.52433594 -207.80179687 213.04867187 -208.21484375 212.55859375 C-221.81944091 195.80735507 -230.94960216 175.90629802 -236 155 C-236.16371094 154.35289062 -236.32742187 153.70578125 -236.49609375 153.0390625 C-245.55695274 115.74726271 -237.10715291 75.76175918 -218.2890625 43.0234375 C-216.60676923 40.28280011 -214.84174667 37.63599992 -213 35 C-212.319375 34.02160156 -211.63875 33.04320312 -210.9375 32.03515625 C-200.31238011 17.51535559 -187.30911472 4.52195225 -172 -5 C-171.43216797 -5.35352539 -170.86433594 -5.70705078 -170.27929688 -6.07128906 C-118.37381624 -37.87583103 -49.05734771 -38.3715888 0 0 Z M-165.6875 46.25 C-185.29565107 66.62654016 -195.41001247 92.67843217 -196.3125 120.8125 C-195.76609886 145.94695259 -186.89200053 169.63255263 -171 189 C-170.46503906 189.67546875 -169.93007812 190.3509375 -169.37890625 191.046875 C-152.78694976 211.37089758 -126.12973054 223.67940333 -100.44140625 226.71875 C-72.48022918 229.00388592 -44.26517796 221.58843933 -22.5625 203.3125 C1.60684971 181.50113563 15.12980039 155.72423636 17.18359375 123.08203125 C17.79123877 98.88346173 9.61182386 73.60132205 -6 55 C-7.04607422 53.74703125 -7.04607422 53.74703125 -8.11328125 52.46875 C-27.35583067 30.32101994 -52.74636524 16.84119027 -81.98803711 14.33300781 C-113.9924557 12.27177536 -142.73818093 24.35988027 -165.6875 46.25 Z " fill="#000000" transform="translate(344,50)"/>
</svg>
