<?xml version="1.0" encoding="UTF-8" standalone="no"?>
<svg
   version="1.1"
   id="Layer_1"
   x="0px"
   y="0px"
   viewBox="0 0 1100 900"
   xml:space="preserve"
   sodipodi:docname="logo.svg"
   width="1100"
   height="900"
   inkscape:version="1.2.2 (732a01da63, 2022-12-09)"
   xmlns:inkscape="http://www.inkscape.org/namespaces/inkscape"
   xmlns:sodipodi="http://sodipodi.sourceforge.net/DTD/sodipodi-0.dtd"
   xmlns="http://www.w3.org/2000/svg"
   xmlns:svg="http://www.w3.org/2000/svg"><defs
   id="defs43" /><sodipodi:namedview
   id="namedview41"
   pagecolor="#505050"
   bordercolor="#eeeeee"
   borderopacity="1"
   inkscape:showpageshadow="0"
   inkscape:pageopacity="0"
   inkscape:pagecheckerboard="0"
   inkscape:deskcolor="#505050"
   showgrid="false"
   inkscape:zoom="0.78224299"
   inkscape:cx="573.35125"
   inkscape:cy="461.49343"
   inkscape:window-width="1920"
   inkscape:window-height="1017"
   inkscape:window-x="-8"
   inkscape:window-y="-8"
   inkscape:window-maximized="1"
   inkscape:current-layer="Layer_1" />
    
    
    <g
   id="g329"
   transform="translate(2.1046447,-0.20080164)"
   inkscape:export-filename="logo.png"
   inkscape:export-xdpi="135.52266"
   inkscape:export-ydpi="135.52266"><path
     d="m 181.97388,25.724052 3.573,0.001 7.451,0.023 11.415,0.02 7.248,0.018 3.45,0.003 3.207,0.019 2.816,0.012 c 4.117,0.222 5.865,0.485 8.773,3.532 l 2.336,2.977 2.352,2.961 c 2.933,3.862 4.358,6.51 5.25,11.246 l 0.691,3.525 1.344,7.094 c 4.806,24.412 12.248,48.213998 19.714,71.914998 l 7.282,23.301 0.741,2.38 13.156,43.827 c 12.906,44.195 26.444,88.083 42.599,131.211 l 0.857,2.3 0.744,1.982 c 0.665,1.941 1.175,3.885 1.645,5.882 l 2.141,-0.516 c 8.043,-1.9 16.115,-3.563 24.229,-5.126 l 2.517,-0.491 2.257,-0.434 c 1.935,-0.376 1.935,-0.376 3.857,-1.433 l -0.598,-1.943 -0.857,-2.786 -0.981,-3.19 -2.242,-7.288 -5.823,-18.925 -3.494,-11.353 -0.726,-2.361 -9.98,-32.458 -5.537,-18.015 -3.812,-12.408 -3.617,-11.771 -1.412,-4.596 -7.973,-25.478 -1.51,-4.735 -2.843,-8.82 c -6.716,-20.887 -7.796,-41.051 -7.595,-62.872 3.052,2.357 5.766,4.676 8.25,7.625 2.658,3.112 5.366,6.164 8.125,9.188 3.872,4.29 7.541,8.712 11.176,13.203 2.767,3.372 5.601,6.681 8.449,9.984 l 12.652,15.105 5.289,6.383 c 8.867,10.608 15.555,21.335 19.891,34.535 l 0.774,2.347 c 2.946,9.105 5.39,18.341 7.825,27.593 l 3.809,14.364 2.158,8.122 62.482,228.801 2.01,7.008 c 5.797,20.233 5.797,20.233 12.265,40.259 4.583,13.424 6.976,27.285 8.837,41.319 l 0.523,3.939 c 1.67,12.873 2.728,25.783 3.694,38.726 2.035,27.085 4.814,53.874 8.993,80.717 10.903,70.048 10.903,70.048 2.798,98.782 l -0.583,2.093 c -5.327,18.598 -13.648,36.234 -21.417,53.907 l -7.09,0.484 -3.988,0.272 c -20.348,1.262 -35.352,-2.405 -50.922,-15.756 1.473,-4.627 4.156,-7.853 7.313,-11.437 l 2.863,-3.309 1.432,-1.625 c 0.928,-1.086 1.824,-2.201 2.687,-3.341 1.794,-2.351 3.126,-4.07 5.936,-5.128 l 2.769,-0.16 2.081,-0.153 7.232,-0.41 2.533,-0.131 6.154,-0.306 0.367,-2.203 0.508,-3.047 0.551,-3.324 1.117,-6.508 0.52,-2.98 0.473,-2.66 c 3.754,-26.466 0.992,-51.927 -5.057,-77.741 l -1.792,-7.686 -2.482,-10.667 -5.353,-23.249 -0.514,-2.244 -3.713,-16.252 -0.567,-2.483 -18.204,-81.333 -34.963,-150.689 -2.157,-8.654 -1.5,-5.975 -0.896,-3.597 -0.787,-3.137 c -0.551,-2.571 -0.551,-2.571 -0.551,-5.571 l -3.089,0.826 -11.327,3.019 -4.906,1.31 -7.044,1.876 -2.222,0.597 c -5.184,1.372 -5.184,1.372 -7.412,1.372 l 0.84,3.039 c 1.49,5.967 2.373,12.043 3.358,18.109 5.527,33.716 13.475,66.942 21.135,100.223 l 12.409,55.211 0.609,2.789 3.088,14.155 1.248,5.724 0.623,2.855 23.392,102.703 2.601,11.04 1.779,7.507 c 13.305,56.233 -3.15,104.301 -26.082,155.645 l -23.212,0.439 -7.882,0.164 c -27.72,0.716 -27.72,0.716 -37.906,-8.604 l -2.273,-1.783 c -1.916,-1.51 -3.731,-3.081 -5.54,-4.717 l -1.846,-1.625 -4.341,-3.874 c 3.397,-3.805 7.214,-6.081 11.563,-8.625 8.244,-4.929 16.268,-10.162 24.25,-15.5 l 1.693,-1.13 8.184,-5.542 a 109.77,109.77 0 0 1 6.994,-4.305 c 6.496,-3.687 6.496,-3.687 10.37,-9.811 0.31,-3.433 0.185,-6.59 -0.116,-10.023 l -0.173,-3.747 c -0.192,-3.779 -0.473,-7.543 -0.764,-11.315 l -0.32,-6.207 c -0.825,-14.677 -2.772,-29.251 -4.658,-43.822 l -3.178,-26.53 c -4.292,-40.106 -10.169,-80.037 -18.845,-119.443 l -0.494,-2.261 c -8.781,-40.11 -20.878,-77.843 -37.816,-115.277 -4.536,-10.044 -8.852,-20.129 -12.689,-30.461 l -0.912,-2.446 c -7.909,-21.547 -11.879,-43.87 -15.65,-66.429 -4.113,-24.54 -9.962,-46.682 -19.328,-69.801 -6.094,-15.117 -10.525,-30.616 -14.34,-46.453 l -0.585,-2.428 -2.813,-11.923 c -1.829,-7.822 -3.883,-15.51 -6.399,-23.141 l -0.713,-2.181 c -3.566,-10.498 -8.69,-20.06 -16.261,-28.199 v -2 l -1.734,-0.75 c -2.266,-1.25 -2.266,-1.25 -4.219,-3.125 -6.132,-5.673 -11.332,-6.85 -19.461,-7.363 l -3.147,-0.228 c -13.456,-0.871 -26.937,-0.799 -40.414,-0.731 l -6.543,0.02 -48.757003,0.611 -6.75,0.184 -19.385,0.836 c -17.203,0.885 -17.203,0.885 -23.202,-3.985 -2.399,-2.329 -4.369,-4.798 -6.388,-7.469 l -3.875,-4.312 -1.59,-1.91 c -1.561,-1.807 -3.226,-3.402 -4.973,-5.027 -2.562,-2.751 -2.562,-2.751 -2.562,-6.751 2.267,-2.74 5.213,-4.806 8,-7 l 2.641,-2.137 c 18.461,-14.451 39.682,-22.808 62.02,-29.32 l 2.68,-0.795 c 1.795,-0.505 3.604,-0.96 5.422,-1.369 4.629003,-1.119 6.673003,-1.642 9.647003,-5.530998 0.582,-1.248 1.131,-2.511 1.652,-3.785 l 1.945,-4.07 0.981,-2.044 c 7.256,-13.984 21.311,-29.071 35.012,-36.949 h 2 l 0.839,-2.214 c 1.844,-4.424 4.349,-8.394 6.848,-12.473 l 1.529,-2.627 1.545,-2.51 1.374,-2.284 c 5.344,-5.422 14.202,-4.167 21.22,-4.122 z"
     fill="#02a2e8"
     id="path2" /><path
     d="m 1065.6189,56.954052 h 2 l 2.454,14.185 0.832,4.806 c 2.537,14.615 5.033,29.165998 5.714,44.009998 l 0.199,3.816 c 1.558,43.659 -20.387,85.438 -43.199,121.184 l -1.661,2.612 -7.152,11.23 c -8.654,13.576 -16.888,27.326 -24.83202,41.33 -7.192,12.665 -14.723,25.109 -22.335,37.525 l -5.783,9.506 -22.237,35.796 -1.868,2.93 -22.198,34.472 -12.934,20.098 -15.25,23.688 -1.59,2.445 -8.16,12.367 c 1.263,2.715 2.604,4.9 4.582,7.145 l 1.555,1.777 1.676,1.891 3.551,4.051 1.834,2.084 8.302,9.552 3.246,3.742 6.539,7.578 c 6.189,7.191 12.484,14.255 18.949,21.199 l 7.266,7.981 c 7.877,8.78 15.927,17.4 24,26 l 7.5,8 1.642,1.751 c 7.694,8.218 15.094,16.65 22.35802,25.249 l 1.386,1.64 2.706,3.204 1.345,1.593 1.344,1.591 c 7.866,9.299 15.827,18.52 24.024,27.53 l 3.655,4.157 c 5.678,6.641 11.935,12.651 18.245,18.687 8.289,8.12 14.853,16.842 16.133,28.644 l 0.405,3.637 0.414,3.926 0.448,4.104 0.928,8.635 1.17,10.827 c 8.657,79.147 8.657,79.147 -1.201,99.825 l -1.349,2.867 c -3.394,7.128 -6.971,14.15 -10.651,21.133 l -1.229,2.333 -5.773,10.667 c -20.865,-4.968 -43.216,-11.014 -60.00002,-25 0.357,-6.969 4.118,-12.285 9.08102,-16.96 6.518,-5.305 13.345,-9.184 20.857,-12.915 l 6.652,-3.367 2.933,-1.464 c 2.622,-1.313 2.622,-1.313 5.477,-3.293 -5.893,-37.632 -17.595,-73.922 -40.00002,-105 l -1.701,-2.391 c -7.598,-10.661 -15.574,-20.851 -24.299,-30.61 l -2.43,-2.73 -6.57,-7.27 -4.187,-4.687 c -16.502,-18.384 -16.502,-18.384 -34.52,-35.242 -5.311,-4.795 -10.269,-9.978 -15.293,-15.07 3.317,31.165 17.638,55.943 36.165,80.556 l 14.106,19.094 3.478,4.707 c 19.528,26.33 19.528,26.33 19.054,32.005 -0.966,3.174 -2.418,5.146 -4.451,7.763 -4.073,5.423 -7.593,11.003 -10.977,16.875 l -1.8,3.11 c -12.41,21.651 -23.704,44.097 -33.817,66.914 -3.575,8.02 -7.118,15.006 -13.758,20.977 l -1.789,1.621 c -12.397,10.153 -30.263,16.708 -46.211,17.377 -6.958,-0.847 -12.436,-3.675 -17,-9 -4.463,-6.957 -9,-18.65 -9,-27 l 18.689,-6.836 6.361,-2.328 9.129,-3.336 2.885,-1.061 2.669,-0.971 2.355,-0.861 c 1.912,-0.607 1.912,-0.607 3.912,-0.607 l 0.352,-2.104 c 0.723,-3.235 1.803,-6.149 3.011,-9.236 l 1.439,-3.725 2.251,-5.764 c 6.906,-17.12 6.906,-17.12 9.947,-35.172 l 0.156,-3.43 c 0.563,-23.304 -12.683,-40.212 -25.286,-58.793 -9.418,-13.981 -18.469,-28.21 -27.428,-42.488 l -4.361,-6.847 c -8.064,-12.602 -15.633,-25.466 -23.081,-38.441 l -1.693,-2.94 -11.307,-20.06 -1.506,-2.726 c -19.842,-36.206 -32.582,-74.167 -43.931,-113.712 l -0.889,-3.095 -4.926,-17.711 -1.466,-5.304 c -4.468,-15.919 -5.883,-32.042 -7.231,-48.455 l -1.62,-18.88 -0.175,-2.025 c -0.774,-8.876 -1.756,-17.662 -3.334,-26.433 -1.824,-10.18 -1.824,-10.18 1.099,-14.964 l 2.793,-3.57 3.066,-4.023 1.586,-2.069 c 13.012,-17.23 24.408,-35.859 35.722,-54.22 l 2.035,-3.272 c 3.171,-5.133 6.211,-10.276 8.996,-15.63 7.063,-13.329 7.063,-13.329 12.41,-15.137 3.375,-0.022 6.139,0.288 9.371,1.227 2.944,7.872 4.556,15.944 6.19,24.161 l 1.571,7.809 3.915,19.47 13.128,61.455 0.555,2.364 c 2.208,9.37 4.668,18.579 7.64,27.741 l 2.063,-3.129 c 15.251,-23.052 31.277,-45.535 47.703,-67.76 l 11.859,-16.299 12.376,-16.813 17.363,-23.727 4.855,-6.711 c 14.719,-20.277 28.86,-40.909 42.641,-61.832 l 3.175,-4.804 c 13.71702,-20.788 25.09102,-42.412 35.03202,-65.235 7.432,-17.040998 15.226,-33.450998 25.934,-48.690998 l 1.356,-2.011 c 1.164,-1.699 2.398,-3.349 3.644,-4.989 z"
     fill="#a34aa4"
     id="path4" /><path
     d="m 398.61888,208.95405 c 7.721,0.663 15.089,2.245 22.633,3.984 l 3.966,0.901 10.419,2.381 10.361,2.366 2.045,0.466 c 29.924,7.175 29.924,7.175 60.26,12.108 l 2.801,0.41 2.429,0.3 c 3.298,1.711 4.004,4.73 5.087,8.083 a 153.76,153.76 0 0 1 1.848,6.84 l 0.511,2.068 1.703,7.03 0.611,2.515 17.081,74.68 0.582,2.604 2.721,12.188 6.942,30.076 c 6.91,-5.683 13.109,-12.04 19.382,-18.402 l 4.271,-4.313 2.531,-2.566 a 122.81,122.81 0 0 1 6.24,-5.616 c 5.271,-4.601 10.075,-9.644 14.916,-14.686 l 9.085,-9.42 1.949,-2.02 27.169,-27.837 22.026,-22.692 19.317,-19.835 10.168,-10.493 c 22.982,-24.322 22.982,-24.322 37.24,-24.977 a 92.75,92.75 0 0 1 13.009,1.395 c 3.594,0.615 7.05,0.685 10.692,0.723 l 6.441,0.426 3.544,0.248 c 31.98,2.546 31.98,2.546 41.018,7.065 -0.605,2.876 -1.47,5.059 -3.012,7.555 l -1.274,2.077 -1.401,2.244 -1.476,2.388 -13.359,21.136 -20.476,32.6 -1.731,2.779 -18.479,30.228 -15.139,25.05 -2.189,3.599 -1.104,1.816 -6.797,11.223 -4.534,7.503 -3.142,5.214 c -8.77,14.494 -18.014,28.578 -29.548,41.041 -1.844,2.011 -3.622,4.049 -5.395,6.121 -4.398,5.041 -9.119,9.754 -13.857,14.471 l -4.548,4.554 c -4.825,4.828 -9.7,9.549 -14.889,13.989 -2.085,1.786 -4.079,3.663 -6.085,5.536 -41.384,37.316 -91.209,62.275 -147.563,60.876 -2.783,-6.978 -4.797,-14.094 -6.789,-21.332 l -1.124,-4.051 -3.065,-11.086 -2.634,-9.526 -8.64,-31.295 -2.973,-10.775 -35.991,-131.506 -2.498,-9.191 -14.906,-56.288 -0.967,-3.819 a 244.98,244.98 0 0 1 -5.413,-29.131 z"
     fill="#4049cc"
     id="path6" /></g>
    
    
    
    
    
    
    
    
    
    
    
    
    
    
    
    
  </svg>
